# xmcd
#
# Track frame offsets: 
#        150
#        13973
#        30765
#        41215
#        57963
#        73116
#        89613
#        105784
#        120031
#        136045
#        148381
#        160643
#        172746
#        189037
#        203191
#        216406
#        228423
#        241613
#        253118
#        263501
#
# Disc length: 3665 seconds
#
# Revision: 2
# Processed by: cddbd v1.5.2PL0 Copyright (c) Steve Scherf et al.
# Submitted via: ExactAudioCopy v0.99pb4
#
DISCID=020e4f14
DTITLE=Various Artist - 100 Vlaamse Klassiekers Volume 2 - CD 3
DYEAR=2008
DGENRE=Chanson
TTITLE0=Bart Kaëll - Dansen In Bahia
TTITLE1=Laura Lynn and Frans Bauer - Als Ik De Lichtjes In Jouw Ogen Zie
TTITLE2=Ann Christy - Ik Wil Dansen
TTITLE3=Petra - Ik Leef Voor Jou
TTITLE4=Spring - Met De Trein Naar Oostende
TTITLE5=Mega Mindy - Ik Ben Mega Mindy
TTITLE6=K 3 - Alle Kleuren
TTITLE7=M-Kids - Indianendans
TTITLE8=Kabouter Plop - Kabouterdans
TTITLE9=Samantha - Nachten Van Parijs
TTITLE10=Truus - Alle Leuke Jongens Willen Vrijen
TTITLE11=Bobby Ranger - Klappen, Stampen, Fluiten
TTITLE12=Tony Bell - Oh! Wat Zij-de Schoon
TTITLE13=Ronny Temmer - Mercie Chérie
TTITLE14=Ray Franky - Oh Heideroosje
TTITLE15=Rina Pia - Er Speelt Een Orgel (In De Straat)
TTITLE16=Will Ferdy - Ziede Gij Me Gere
TTITLE17=Lize Marke - Edelweiss
TTITLE18=Marva - Geef Me Nog Een Kans
TTITLE19=Bobbejaan Schoepen - Grijze Haren
EXTD=YEAR: 2008
EXTT0=
EXTT1=
EXTT2=
EXTT3=
EXTT4=
EXTT5=
EXTT6=
EXTT7=
EXTT8=
EXTT9=
EXTT10=
EXTT11=
EXTT12=
EXTT13=
EXTT14=
EXTT15=
EXTT16=
EXTT17=
EXTT18=
EXTT19=
PLAYORDER=
